REM MD5 7817e807c2e3ead3638895a97c9ff60a
FILE "UEFA Champions League - Season 1998-99 (Europe).bin" BINARY
  TRACK 01 MODE2/2352
    INDEX 01 00:00:00
  TRACK 02 AUDIO
    INDEX 00 44:32:25
    INDEX 01 44:34:25
  TRACK 03 AUDIO
    INDEX 00 49:28:30
    INDEX 01 49:30:30
REM LEADOUT 54:36:57
